<svg width="95" height="80" viewBox="0 0 95 80" fill="none" xmlns="http://www.w3.org/2000/svg">
<g clip-path="url(#clip0_499_12115)">
<path opacity="0.1" d="M15.0962 56.4224L34.2011 45.7802L32.8702 43.1782L25.9143 45.7802L15.0962 51.7185V56.4224Z" fill="#0E0000"/>
<path opacity="0.1" d="M85.6496 48.5696H82.8094L91.5993 53.8282L81.6963 54.5393L81.621 48.5696H70.1335L72.6647 59.6533L66.6595 69.1859L57.2081 74.3742L57.0972 79.2851L89.3771 60.923L94.701 53.9298L85.6496 48.5696ZM87.2341 59.2822L81.2923 55.8363L90.1099 55.2425L87.2341 59.2822Z" fill="#0E0000"/>
<path d="M54.4348 80C56.3491 80 57.9009 79.1202 57.9009 78.0349C57.9009 76.9496 56.3491 76.0698 54.4348 76.0698C52.5206 76.0698 50.9688 76.9496 50.9688 78.0349C50.9688 79.1202 52.5206 80 54.4348 80Z" fill="#32526E"/>
<path d="M57.9009 53.9767H50.9688V78.0349H57.9009V53.9767Z" fill="#32526E"/>
<path d="M70.1414 71.151C72.0556 71.151 73.6074 70.2712 73.6074 69.1859C73.6074 68.1006 72.0556 67.2208 70.1414 67.2208C68.2271 67.2208 66.6753 68.1006 66.6753 69.1859C66.6753 70.2712 68.2271 71.151 70.1414 71.151Z" fill="#32526E"/>
<path d="M73.6074 45.1277H66.6753V69.1859H73.6074V45.1277Z" fill="#32526E"/>
<path d="M13.6741 56.5942C15.5883 56.5942 17.1401 55.7144 17.1401 54.6291C17.1401 53.5438 15.5883 52.6639 13.6741 52.6639C11.7598 52.6639 10.208 53.5438 10.208 54.6291C10.208 55.7144 11.7598 56.5942 13.6741 56.5942Z" fill="#32526E"/>
<path d="M17.1401 30.5709H10.208V54.6291H17.1401V30.5709Z" fill="#32526E"/>
<path d="M29.3801 47.7453C31.2944 47.7453 32.8462 46.8654 32.8462 45.7801C32.8462 44.6948 31.2944 43.815 29.3801 43.815C27.4659 43.815 25.9141 44.6948 25.9141 45.7801C25.9141 46.8654 27.4659 47.7453 29.3801 47.7453Z" fill="#32526E"/>
<path d="M32.8462 21.7219H25.9141V45.7801H32.8462V21.7219Z" fill="#32526E"/>
<path d="M87.5905 49.347L64.3263 62.5365L1.01416 25.2459L11.036 19.5614L12.3947 18.7918L23.2643 12.6268L87.5905 49.347Z" fill="#1F232C"/>
<path d="M80.4326 29.1761L29.1904 0L23.2485 12.6308L87.5747 49.3549L80.4326 29.1761ZM25.7164 12.0682L29.7964 5.22342L34.1221 16.8618L25.7164 12.0682ZM31.7374 3.31298L44.1637 10.5719L35.6709 15.2483L31.7374 3.31298ZM36.7484 18.2449L45.4195 13.4746L53.4251 27.7697L36.7484 18.2449ZM54.1579 25.4803L46.7267 12.0682L54.1579 16.2485V25.4803ZM56.3484 17.5377L64.5482 22.2611L56.3484 26.8946V17.5377ZM56.9664 29.8442L65.6137 25.1287L73.3777 39.1932L56.9664 29.8442ZM66.7981 23.4409L79.2126 30.524L74.673 37.4625L66.7981 23.4409ZM80.2306 34.7707L84.1482 45.2762L76.1624 40.7442L80.2306 34.7707Z" fill="#DCE7EC"/>
<path d="M14.0149 20.4874C13.971 20.5636 13.9121 20.6304 13.8418 20.6841C13.7716 20.7377 13.6912 20.7771 13.6054 20.8C13.5196 20.8229 13.4301 20.8288 13.3419 20.8174C13.2538 20.806 13.1688 20.7775 13.0919 20.7335L11.04 19.5615L12.3948 18.7801L13.7693 19.5615C13.8484 19.6051 13.9177 19.664 13.9731 19.7347C14.0285 19.8054 14.0689 19.8864 14.0918 19.9729C14.1148 20.0593 14.1198 20.1495 14.1066 20.2379C14.0933 20.3263 14.0622 20.4111 14.0149 20.4874Z" fill="#FEFEFE"/>
<path d="M73.7263 55.2425C73.6069 55.2413 73.4897 55.2104 73.3856 55.1526L68.3628 52.285C68.2052 52.1964 68.0897 52.0497 68.0418 51.8772C67.9939 51.7046 68.0175 51.5204 68.1073 51.365C68.1971 51.2095 68.3459 51.0957 68.5208 51.0484C68.6957 51.0012 68.8826 51.0244 69.0402 51.113L74.063 53.9845C74.1918 54.058 74.2925 54.1713 74.3494 54.3069C74.4064 54.4425 74.4165 54.5929 74.3782 54.7347C74.3399 54.8766 74.2553 55.002 74.1374 55.0917C74.0196 55.1813 73.8751 55.2302 73.7263 55.2308V55.2425ZM63.6767 49.5034C63.557 49.5042 63.4393 49.4731 63.336 49.4135L58.3132 46.5459C58.2352 46.502 58.1667 46.4434 58.1116 46.3735C58.0565 46.3035 58.016 46.2235 57.9922 46.1381C57.9685 46.0526 57.9621 45.9634 57.9733 45.8755C57.9845 45.7876 58.0132 45.7028 58.0577 45.6259C58.1022 45.5489 58.1616 45.4813 58.2325 45.427C58.3035 45.3727 58.3846 45.3327 58.4712 45.3093C58.5578 45.2859 58.6483 45.2796 58.7374 45.2906C58.8265 45.3017 58.9125 45.33 58.9906 45.3739L64.0173 48.2415C64.1722 48.3312 64.2848 48.4775 64.3308 48.6487C64.3768 48.8199 64.3524 49.0021 64.2629 49.1557C64.2056 49.26 64.121 49.3473 64.0179 49.4084C63.9148 49.4696 63.797 49.5023 63.6767 49.5034ZM53.6271 43.7682C53.5074 43.769 53.3897 43.7379 53.2864 43.6783L48.2636 40.8107C48.1856 40.7668 48.1171 40.7082 48.062 40.6383C48.0069 40.5683 47.9664 40.4883 47.9426 40.4028C47.9189 40.3174 47.9125 40.2282 47.9237 40.1403C47.9349 40.0524 47.9636 39.9676 48.0081 39.8906C48.0526 39.8137 48.112 39.7461 48.1829 39.6918C48.2539 39.6375 48.335 39.5975 48.4216 39.5741C48.5082 39.5507 48.5987 39.5443 48.6878 39.5554C48.7769 39.5665 48.8629 39.5948 48.941 39.6386L53.9677 42.5414C54.0968 42.6151 54.1977 42.7288 54.2546 42.8648C54.3115 43.0008 54.3213 43.1515 54.2824 43.2935C54.2436 43.4356 54.1583 43.561 54.0398 43.6504C53.9213 43.7397 53.7762 43.788 53.6271 43.7877V43.7682ZM43.5933 38.0329C43.4739 38.0318 43.3567 38.0008 43.2526 37.9431L38.2298 35.0755C38.1518 35.0316 38.0833 34.973 38.0282 34.903C37.9732 34.8331 37.9326 34.7531 37.9089 34.6676C37.8851 34.5822 37.8787 34.493 37.8899 34.4051C37.9012 34.3172 37.9298 34.2324 37.9743 34.1554C38.0188 34.0785 38.0782 34.0109 38.1492 33.9566C38.2201 33.9023 38.3012 33.8623 38.3878 33.8389C38.4745 33.8155 38.5649 33.8091 38.654 33.8202C38.7431 33.8313 38.8292 33.8596 38.9072 33.9034L43.934 36.7749C44.0631 36.8486 44.1639 36.9623 44.2208 37.0983C44.2777 37.2343 44.2875 37.385 44.2487 37.5271C44.2099 37.6691 44.1246 37.7945 44.0061 37.8839C43.8876 37.9732 43.7425 38.0215 43.5933 38.0212V38.0329ZM33.5279 32.2938C33.4082 32.2946 33.2905 32.2636 33.1872 32.204L28.1644 29.3364C28.0864 29.2925 28.0178 29.2339 27.9628 29.1639C27.9077 29.0939 27.8672 29.0139 27.8434 28.9285C27.8197 28.8431 27.8133 28.7539 27.8245 28.666C27.8357 28.5781 27.8644 28.4933 27.9089 28.4163C27.9534 28.3393 28.0128 28.2718 28.0837 28.2175C28.1547 28.1631 28.2358 28.1232 28.3224 28.0998C28.409 28.0764 28.4995 28.07 28.5886 28.0811C28.6777 28.0922 28.7637 28.1204 28.8417 28.1643L33.8685 31.0319C34.0233 31.1216 34.136 31.268 34.182 31.4392C34.228 31.6104 34.2036 31.7926 34.1141 31.9461C34.0568 32.0504 33.9722 32.1377 33.8691 32.1989C33.766 32.26 33.6482 32.2928 33.5279 32.2938ZM23.4783 26.5586C23.3586 26.5594 23.2409 26.5284 23.1376 26.4687L18.1148 23.6011C18.0367 23.5573 17.9682 23.4987 17.9132 23.4287C17.8581 23.3587 17.8175 23.2787 17.7938 23.1933C17.7701 23.1079 17.7637 23.0187 17.7749 22.9308C17.7861 22.8429 17.8148 22.758 17.8593 22.6811C17.9038 22.6041 17.9632 22.5366 18.0341 22.4822C18.1051 22.4279 18.1862 22.3879 18.2728 22.3645C18.3594 22.3411 18.4499 22.3348 18.539 22.3459C18.6281 22.3569 18.7141 22.3852 18.7921 22.4291L23.8189 25.2967C23.948 25.3704 24.0489 25.4841 24.1058 25.6201C24.1627 25.756 24.1725 25.9068 24.1336 26.0488C24.0948 26.1909 24.0095 26.3163 23.891 26.4056C23.7725 26.495 23.6274 26.5433 23.4783 26.543V26.5586Z" fill="#FEFEFE"/>
<path d="M57.1764 42.3656L5.92619 13.1934L0.0200195 25.8202L64.3501 62.5443L57.1764 42.3656ZM2.45617 25.2381L6.53226 18.3972L10.8579 30.0396L2.45617 25.2381ZM8.47325 16.4829L20.8996 23.7457L12.3869 28.4339L8.47325 16.4829ZM13.4881 31.4343L22.1592 26.668L30.1609 40.9787L13.4881 31.4343ZM30.8937 38.6697L23.4625 25.2459L30.8937 29.4262V38.6697ZM33.0882 30.7116L41.284 35.4349L33.0882 40.0684V30.7116ZM33.6903 43.018L42.3377 38.3025L50.1056 52.3671L33.6903 43.018ZM43.526 36.6148L55.9524 43.7135L51.4089 50.6832L43.526 36.6148ZM56.9546 47.9445L60.8722 58.493L52.8864 53.9493L56.9546 47.9445Z" fill="#DCE7EC"/>
</g>
<defs>
<clipPath id="clip0_499_12115">
<rect width="94.7126" height="80" fill="white"/>
</clipPath>
</defs>
</svg>
