<svg width="83" height="80" viewBox="0 0 83 80" fill="none" xmlns="http://www.w3.org/2000/svg">
<g clip-path="url(#clip0_499_12085)">
<path d="M82.3301 64.288C82.3301 64.4754 82.3301 64.6628 82.2972 64.8469C81.8855 68.6771 78.0621 71.6788 73.4055 71.6788C68.7489 71.6788 64.9288 68.6771 64.5139 64.8469C64.493 64.6613 64.482 64.4748 64.481 64.288C64.56 61.4606 68.5217 59.1855 73.4022 59.1855C78.2828 59.1855 82.2478 61.4705 82.3301 64.288Z" fill="#32526E"/>
<path d="M38.6392 12.8747C38.6392 12.8747 39.7918 13.1147 31.516 10.3958C19.3838 6.40779 23.9647 6.95026 13.6635 0.697025C13.6635 0.697025 10.3934 -0.657514 8.839 0.417569C7.28461 1.49265 8.28574 2.57431 9.82696 2.14362C11.3682 1.71293 14.118 3.93543 16.5056 5.90805C18.1983 7.2889 20.7867 10.3761 27.2447 13.6112C29.9023 14.9263 35.8894 15.9126 38.6919 18.2896L38.6392 12.8747Z" fill="#0EAAFC"/>
<path d="M51.3214 70.2815C49.408 68.2102 45.6439 66.7998 41.3166 66.7998C36.9894 66.7998 33.2285 68.2102 31.3119 70.2815H29.9683V73.4015C29.9683 77.0443 35.0497 80 41.3199 80C47.5902 80 52.6716 77.041 52.6716 73.4015V70.2815H51.3214Z" fill="#32526E"/>
<path d="M41.3165 76.8766C47.5859 76.8766 52.6682 73.9224 52.6682 70.2782C52.6682 66.634 47.5859 63.6797 41.3165 63.6797C35.0472 63.6797 29.9648 66.634 29.9648 70.2782C29.9648 73.9224 35.0472 76.8766 41.3165 76.8766Z" fill="#15CBF8"/>
<path d="M82.3301 64.3735C82.3297 64.532 82.3175 64.6902 82.2939 64.8469C81.8823 67.4771 78.0588 69.5615 73.4023 69.5615C68.7457 69.5615 64.9255 67.4903 64.5106 64.8469C64.487 64.6902 64.4749 64.532 64.4744 64.3735C64.4727 64.345 64.4727 64.3165 64.4744 64.288C64.5534 61.4606 68.5151 59.1855 73.3957 59.1855C78.2762 59.1855 82.2478 61.4704 82.3301 64.288C82.3318 64.3165 82.3318 64.345 82.3301 64.3735Z" fill="#0EAAFC"/>
<path d="M35.896 64.7779V69.4497C35.896 71.1331 38.3264 72.5007 41.3232 72.5007C44.32 72.5007 46.7504 71.1331 46.7504 69.4497V64.7779H35.896Z" fill="#32526E"/>
<path d="M41.3164 67.8289C44.3137 67.8289 46.7436 66.4629 46.7436 64.7779C46.7436 63.0928 44.3137 61.7269 41.3164 61.7269C38.319 61.7269 35.8892 63.0928 35.8892 64.7779C35.8892 66.4629 38.319 67.8289 41.3164 67.8289Z" fill="#15CBF8"/>
<path d="M39.3472 9.52454V64.1993C39.3472 64.8108 40.2297 65.3072 41.3231 65.3072C42.4164 65.3072 43.299 64.8108 43.299 64.1993V9.52454H39.3472Z" fill="#0EAAFC"/>
<path d="M41.3165 10.6358C42.4041 10.6358 43.2858 10.1397 43.2858 9.52782C43.2858 8.91591 42.4041 8.41986 41.3165 8.41986C40.2289 8.41986 39.3472 8.91591 39.3472 9.52782C39.3472 10.1397 40.2289 10.6358 41.3165 10.6358Z" fill="#15CBF8"/>
<path d="M41.2935 22.5997C42.8449 22.5997 44.1026 21.8932 44.1026 21.0216C44.1026 20.1501 42.8449 19.4435 41.2935 19.4435C39.7421 19.4435 38.4844 20.1501 38.4844 21.0216C38.4844 21.8932 39.7421 22.5997 41.2935 22.5997Z" fill="#15CBF8"/>
<path d="M44.1026 12.6643H38.5107V21.0217H44.1026V12.6643Z" fill="#15CBF8"/>
<path d="M41.2935 14.2424C42.8449 14.2424 44.1026 13.5358 44.1026 12.6643C44.1026 11.7927 42.8449 11.0862 41.2935 11.0862C39.7421 11.0862 38.4844 11.7927 38.4844 12.6643C38.4844 13.5358 39.7421 14.2424 41.2935 14.2424Z" fill="#15CBF8"/>
<path d="M41.2936 13.3021C42.3812 13.3021 43.2629 12.8061 43.2629 12.1941C43.2629 11.5822 42.3812 11.0862 41.2936 11.0862C40.2059 11.0862 39.3242 11.5822 39.3242 12.1941C39.3242 12.8061 40.2059 13.3021 41.2936 13.3021Z" fill="#0EAAFC"/>
<path d="M43.2858 11.0862H39.3471L39.3208 12.1941H43.2628L43.2858 11.0862Z" fill="#0EAAFC"/>
<path d="M41.3167 10.1459C42.1242 10.1459 42.7789 9.87359 42.7789 9.53767C42.7789 9.20176 42.1242 8.92944 41.3167 8.92944C40.5091 8.92944 39.8545 9.20176 39.8545 9.53767C39.8545 9.87359 40.5091 10.1459 41.3167 10.1459Z" fill="#32526E"/>
<path d="M41.3164 9.92888C42.6405 9.92888 43.7139 8.8573 43.7139 7.53543C43.7139 6.21356 42.6405 5.14197 41.3164 5.14197C39.9923 5.14197 38.9189 6.21356 38.9189 7.53543C38.9189 8.8573 39.9923 9.92888 41.3164 9.92888Z" fill="#15CBF8"/>
<path d="M43.2856 14.5416C46.8022 18.2232 50.5415 21.6862 54.4825 24.911C64.8726 33.4591 66.259 30.2437 71.021 34.6657C71.021 34.6657 74.5645 37.7594 74.3965 39.64C74.2286 41.5206 72.7927 41.1885 72.4042 39.64C72.0156 38.0915 68.7487 35.4383 65.8704 34.3336C62.9922 33.2289 48.344 27.3406 43.2856 20.6074V14.5416Z" fill="#0EAAFC"/>
<path d="M80.6833 64.3735C80.6834 64.4746 80.6768 64.5757 80.6635 64.676C80.3968 66.8722 77.2518 68.6048 73.4185 68.6048C69.5852 68.6048 66.4237 66.8722 66.157 64.676C66.1437 64.5757 66.1371 64.4746 66.1372 64.3735C66.1372 62.0392 69.3975 60.1422 73.4185 60.1422C77.4395 60.1422 80.6833 62.0392 80.6833 64.3735Z" fill="#32526E"/>
<path d="M80.6638 64.676C80.397 66.8721 77.252 68.6048 73.4187 68.6048C69.5855 68.6048 66.424 66.8721 66.1572 64.676C66.424 62.4798 69.5723 60.7471 73.4187 60.7471C77.2652 60.7471 80.4003 62.4798 80.6638 64.676Z" fill="#68EAFF"/>
<path d="M82.1293 63.8047C82.104 63.8042 82.0795 63.7961 82.0589 63.7815C82.0383 63.7668 82.0227 63.7462 82.014 63.7225L73.646 39.8406C73.6356 39.8092 73.638 39.7749 73.6529 39.7453C73.6677 39.7158 73.6936 39.6932 73.725 39.6827C73.7403 39.6766 73.7568 39.6736 73.7732 39.6741C73.7897 39.6746 73.8059 39.6786 73.8208 39.6857C73.8357 39.6928 73.8489 39.703 73.8596 39.7155C73.8704 39.728 73.8784 39.7426 73.8831 39.7584L82.2479 63.6403C82.2536 63.6556 82.2561 63.6719 82.2554 63.6882C82.2546 63.7046 82.2506 63.7206 82.2435 63.7353C82.2365 63.75 82.2265 63.7632 82.2142 63.774C82.202 63.7848 82.1876 63.793 82.1721 63.7981C82.1585 63.8035 82.1439 63.8057 82.1293 63.8047Z" fill="#DCE7EC"/>
<path d="M75.0423 69.3149C75.0102 69.3149 74.9794 69.3027 74.9561 69.2807C74.9328 69.2586 74.9189 69.2285 74.9172 69.1965L73.2706 39.8044C73.2696 39.772 73.2809 39.7404 73.3023 39.716C73.3237 39.6916 73.3535 39.6762 73.3858 39.6729C73.4025 39.671 73.4193 39.6727 73.4353 39.6778C73.4512 39.6829 73.4659 39.6913 73.4783 39.7025C73.4908 39.7137 73.5007 39.7274 73.5075 39.7427C73.5142 39.758 73.5177 39.7745 73.5176 39.7912L75.1642 69.1834C75.165 69.1998 75.1627 69.2162 75.1572 69.2317C75.1517 69.2472 75.1432 69.2615 75.1322 69.2737C75.1212 69.2859 75.1079 69.2959 75.093 69.3029C75.0782 69.31 75.062 69.3141 75.0456 69.3149H75.0423Z" fill="#DCE7EC"/>
<path d="M64.6586 63.8047C64.6456 63.8079 64.6321 63.8079 64.6191 63.8047C64.5883 63.7936 64.5631 63.7708 64.5489 63.7413C64.5347 63.7118 64.5327 63.6779 64.5433 63.6469L72.9838 39.7715C72.995 39.7408 73.0178 39.7156 73.0474 39.7015C73.0769 39.6873 73.1109 39.6853 73.1419 39.6959C73.1574 39.7011 73.1717 39.7093 73.184 39.7201C73.1963 39.7309 73.2062 39.744 73.2133 39.7588C73.2204 39.7735 73.2244 39.7895 73.2251 39.8058C73.2259 39.8221 73.2233 39.8384 73.2176 39.8537L64.7771 63.7225C64.7679 63.7465 64.7517 63.7672 64.7305 63.7818C64.7094 63.7965 64.6843 63.8045 64.6586 63.8047Z" fill="#DCE7EC"/>
<path d="M17.846 26.1406C17.845 26.3274 17.834 26.5139 17.8131 26.6995C17.4014 30.5297 13.578 33.5248 8.92471 33.5248C4.27141 33.5248 0.448001 30.5297 0.03635 26.6995C0.0165908 26.5154 0.00671117 26.328 0.00341797 26.1406C0.0824549 23.3132 4.04418 21.0315 8.92471 21.0315C13.8052 21.0315 17.7834 23.3132 17.846 26.1406Z" fill="#32526E"/>
<path d="M17.8489 26.2261C17.8486 26.3846 17.8365 26.5428 17.8127 26.6995C17.4011 29.3297 13.5776 31.4174 8.92106 31.4174C4.26447 31.4174 0.447643 29.3428 0.0359927 26.6995C0.012223 26.5428 0.000114793 26.3846 -0.000232515 26.2261C-0.00187562 26.1976 -0.00187562 26.1691 -0.000232515 26.1406C0.0820976 23.3132 4.04382 21.0315 8.92435 21.0315C13.8049 21.0315 17.7831 23.3132 17.8456 26.1406C17.8484 26.169 17.8495 26.1976 17.8489 26.2261Z" fill="#0EAAFC"/>
<path d="M16.2024 26.2261C16.2025 26.3273 16.1959 26.4283 16.1827 26.5286C15.9159 28.7281 12.7709 30.4738 8.93764 30.4738C5.10435 30.4738 1.94287 28.7445 1.69259 26.5286C1.67052 26.4289 1.65512 26.3278 1.64648 26.2261C1.64648 23.8918 4.90676 21.9948 8.92776 21.9948C12.9488 21.9948 16.2024 23.8918 16.2024 26.2261Z" fill="#32526E"/>
<path d="M16.183 26.5286C15.9162 28.7281 12.7712 30.4738 8.93792 30.4738C5.10463 30.4738 1.94315 28.7445 1.69287 26.5286C1.95962 24.3324 5.10792 22.5833 8.95439 22.5833C12.8008 22.5833 15.9195 24.3192 16.183 26.5286Z" fill="#68EAFF"/>
<path d="M17.6483 25.6573C17.623 25.6568 17.5985 25.6487 17.5779 25.6341C17.5573 25.6194 17.5417 25.5988 17.533 25.5751L9.16828 1.69314C9.16258 1.67784 9.16003 1.66154 9.16077 1.64523C9.16151 1.62892 9.16554 1.61292 9.17261 1.59819C9.17968 1.58347 9.18964 1.57031 9.20191 1.55951C9.21418 1.54871 9.2285 1.54049 9.24402 1.53533C9.25936 1.52964 9.27568 1.52709 9.29202 1.52784C9.30836 1.52858 9.32438 1.5326 9.33914 1.53965C9.35389 1.54671 9.36706 1.55666 9.37788 1.56891C9.3887 1.58116 9.39693 1.59546 9.4021 1.61095L17.7833 25.4929C17.789 25.5082 17.7916 25.5245 17.7908 25.5408C17.7901 25.5572 17.786 25.5731 17.779 25.5879C17.7719 25.6026 17.7619 25.6158 17.7497 25.6266C17.7374 25.6374 17.7231 25.6456 17.7076 25.6507C17.6891 25.6597 17.6682 25.662 17.6483 25.6573Z" fill="#DCE7EC"/>
<path d="M10.5613 31.1675C10.5293 31.1676 10.4984 31.1553 10.4751 31.1333C10.4518 31.1113 10.4379 31.0812 10.4362 31.0492L8.7896 1.65699C8.78869 1.6244 8.80059 1.59275 8.82274 1.56879C8.84489 1.54484 8.87554 1.53047 8.90815 1.52877C8.92436 1.52691 8.94078 1.5285 8.95632 1.53344C8.97186 1.53839 8.98617 1.54657 8.99831 1.55745C9.01045 1.56832 9.02014 1.58165 9.02674 1.59654C9.03334 1.61143 9.0367 1.62755 9.03659 1.64384L10.6832 31.036C10.6841 31.0524 10.6817 31.0689 10.6762 31.0844C10.6708 31.0999 10.6623 31.1141 10.6512 31.1263C10.6402 31.1386 10.6269 31.1485 10.6121 31.1556C10.5972 31.1626 10.5811 31.1667 10.5646 31.1675H10.5613Z" fill="#DCE7EC"/>
<path d="M0.178074 25.6574C0.165097 25.6606 0.151533 25.6606 0.138556 25.6574C0.123035 25.6522 0.108713 25.644 0.0964433 25.6332C0.0841737 25.6224 0.0742077 25.6092 0.0671394 25.5945C0.0600711 25.5798 0.0560452 25.5638 0.0553017 25.5475C0.0545582 25.5312 0.0571124 25.5149 0.062812 25.4996L8.50329 1.61101C8.51447 1.58025 8.5373 1.55509 8.56685 1.54095C8.59641 1.52681 8.63035 1.52482 8.66137 1.53539C8.67689 1.54054 8.69121 1.54877 8.70348 1.55957C8.71575 1.57037 8.72572 1.58352 8.73278 1.59825C8.73985 1.61297 8.74388 1.62897 8.74462 1.64528C8.74537 1.6616 8.74281 1.67789 8.73711 1.6932L0.296629 25.5752C0.288218 25.5997 0.27218 25.6209 0.250854 25.6357C0.229528 25.6505 0.204029 25.6581 0.178074 25.6574Z" fill="#DCE7EC"/>
</g>
<defs>
<clipPath id="clip0_499_12085">
<rect width="82.3301" height="80" fill="white"/>
</clipPath>
</defs>
</svg>
